<?xml version="1.0" encoding="utf-8"?>
<!-- Generator: Adobe Illustrator 25.4.1, SVG Export Plug-In . SVG Version: 6.00 Build 0)  -->
<svg version="1.1" id="Layer_1" xmlns="http://www.w3.org/2000/svg" xmlns:xlink="http://www.w3.org/1999/xlink" x="0px" y="0px"
	 viewBox="0 0 799.9 426" style="enable-background:new 0 0 799.9 426;" xml:space="preserve">
<style type="text/css">
	.st0{fill:url(#SVGID_1_);}
	.st1{fill-rule:evenodd;clip-rule:evenodd;fill:#113255;fill-opacity:0.3321;}
	.st2{fill-rule:evenodd;clip-rule:evenodd;fill:#FFFFFF;}
	.st3{fill-rule:evenodd;clip-rule:evenodd;fill:#D5D5FD;}
	.st4{fill:#263238;}
	.st5{fill:#407BFF;}
	.st6{fill:#E0ADA2;}
	.st7{fill:#917D7B;}
	.st8{opacity:0.2;enable-background:new    ;}
	.st9{fill:#1D272B;}
	.st10{opacity:0.2;}
	.st11{fill-rule:evenodd;clip-rule:evenodd;fill:url(#Fill-1_00000058565953257283196030000013513126738683806362_);}
	.st12{fill:#EAB3AD;}
	.st13{fill:#EDC3C0;}
	.st14{opacity:0.29;fill:#77684D;}
	.st15{fill:#77684D;}
	.st16{opacity:0.2;fill:#FFFFFF;enable-background:new    ;}
	.st17{opacity:0.3;fill:#FFFFFF;enable-background:new    ;}
	.st18{opacity:0.4;fill:#407BFF;enable-background:new    ;}
	.st19{opacity:0.7;fill:#FFFFFF;enable-background:new    ;}
	.st20{opacity:0.2;fill:#407BFF;enable-background:new    ;}
	.st21{fill:#A2C0ED;}
	.st22{fill:#679AF4;}
	.st23{enable-background:new    ;}
	.st24{fill:#356CE5;}
	.st25{opacity:0.55;fill:#A2C0ED;}
	.st26{fill:#356CE5;enable-background:new    ;}
</style>
<desc>Created with Sketch.</desc>
<linearGradient id="SVGID_1_" gradientUnits="userSpaceOnUse" x1="-8.346" y1="210.3162" x2="808.2654" y2="210.3162">
	<stop  offset="0" style="stop-color:#164372"/>
	<stop  offset="1" style="stop-color:#04458F"/>
</linearGradient>
<rect x="-8.3" y="-12.1" class="st0" width="816.6" height="444.9"/>
<g id="Stories-maquetados">
	<g id="Izquierda-resutados">
		<g id="Forma1-Copy-3" transform="translate(0.000000, 13.000000)">
			<path id="Fill-1" class="st1" d="M583.6,110.3c8.4-22,1.1-49.1-17.6-63.6c-12.8-9.9-29.2-14.3-45.3-14.7
				c-26.8-0.6-52.6,9.3-77.8,17C417,56.8,391,64.2,364.6,69.6c-45,9.2-89.8,8.2-134.6-1.5C150.4,50.9,71.8,8.1-11.7,22.9
				c-2.5,0.4-5,0.9-7.5,1.5c-0.8,0.2-1.7,0.4-2.5,0.6c-42.2,9.8-82.8,40.9-89.3,86.3c-5,35,15.9,66.3,44.7,84
				C0.3,236.3,75.4,268.1,154,274.6c68.3,5.7,136.4-8.4,200.1-32.4c52.5-19.8,102.9-45.2,152.8-70.7c28.2-14.4,63.1-28.5,76.1-59.9
				C583.2,111.1,583.4,110.7,583.6,110.3"/>
		</g>
		<g id="estrellas-copy-4" transform="translate(13.000000, 0.000000)">
			<path id="Fill-33" class="st2" d="M366.5,258.6c-1.5,0.5-0.9,3.1,0.7,2.9c0.3,0,0.6-0.2,0.9-0.4l0.2-0.1
				C369.5,260.1,367.7,258.2,366.5,258.6"/>
			<path id="Fill-33-Copy" class="st2" d="M442.3,291.1c-1.5,0.5-0.9,3.1,0.7,2.9c0.3,0,0.6-0.2,0.9-0.4l0.2-0.1
				C445.2,292.6,443.4,290.7,442.3,291.1"/>
			<path id="Fill-33-Copy_00000069375220630942876490000007167927436140056450_" class="st2" d="M72.1,201.1
				c-1.5,0.5-0.9,3.1,0.7,2.9c0.3,0,0.6-0.2,0.9-0.4l0.2-0.1C75,202.5,73.3,200.7,72.1,201.1"/>
			<path id="Fill-33_00000042708737799575549360000005185326294447323276_" class="st2" d="M89.6,72.7c-1.5,0.5-0.9,3.1,0.7,2.9
				c0.3,0,0.6-0.2,0.9-0.4l0.2-0.1C92.5,74.1,90.8,72.3,89.6,72.7"/>
			<path id="Fill-33_00000151516869165479353800000013064385742411265469_" class="st2" d="M9.6,82.7c-1.5,0.5-0.9,3.1,0.7,2.9
				c0.3,0,0.6-0.2,0.9-0.4l0.2-0.1C12.5,84.1,10.7,82.3,9.6,82.7"/>
			<path id="Fill-33_00000147218799978678177650000012376011277890291850_" class="st2" d="M-130.5,232.7c-1.5,0.5-0.9,3.1,0.7,2.9
				c0.3,0,0.6-0.2,0.9-0.4l0.2-0.1C-127.5,234.2-129.3,232.3-130.5,232.7"/>
			<path id="Fill-33_00000070817059363609638490000005912106825079270804_" class="st2" d="M-100.5,122.7c-1.5,0.5-0.9,3.1,0.7,2.9
				c0.3,0,0.6-0.2,0.9-0.4l0.2-0.1C-97.5,124.1-99.3,122.3-100.5,122.7"/>
			<path id="Fill-33_00000108310242503168841690000006846517533314188441_" class="st2" d="M-70.5,142.7c-1.5,0.5-0.9,3.1,0.7,2.9
				c0.3,0,0.6-0.2,0.9-0.4l0.2-0.1C-67.5,144.2-69.3,142.3-70.5,142.7"/>
			<path id="Fill-33-Copy_00000106130249471276324590000016343662983568926375_" class="st2" d="M162.1,101
				c-1.5,0.5-0.9,3.1,0.7,2.9c0.3,0,0.6-0.2,0.9-0.4l0.2-0.1C165.1,102.5,163.3,100.6,162.1,101"/>
			<path id="Fill-33-Copy_00000138559566818457629480000015697075089420829060_" class="st2" d="M182.2,71c-1.5,0.5-0.9,3.1,0.7,2.9
				c0.3,0,0.6-0.2,0.9-0.4l0.2-0.1C185.1,72.5,183.3,70.6,182.2,71"/>
			<path id="Fill-33-Copy_00000173141136969354648120000007324409076889669800_" class="st2" d="M492.1,219.1
				c-1.5,0.5-0.9,3.1,0.7,2.9c0.3,0,0.6-0.2,0.9-0.4l0.2-0.1C495,220.6,493.2,218.7,492.1,219.1"/>
			<path id="Fill-33-Copy_00000173144864120835932580000013869624867136381825_" class="st2" d="M468.1,411.1
				c-1.5,0.5-0.9,3.1,0.7,2.9c0.3,0,0.6-0.2,0.9-0.4l0.2-0.1C471,412.5,469.2,410.7,468.1,411.1"/>
			<path id="Fill-33-Copy_00000010292470547603958680000009431417254202759838_" class="st2" d="M194.8,357.5
				c-1.5,0.5-0.9,3.1,0.7,2.9c0.3,0,0.6-0.2,0.9-0.4l0.2-0.1C197.7,359,195.9,357.1,194.8,357.5"/>
			<path id="Fill-33-Copy_00000160891023835189144400000004276316838132943288_" class="st2" d="M273,393.3
				c-1.5,0.5-0.9,3.1,0.7,2.9c0.3,0,0.6-0.2,0.9-0.4l0.2-0.1C276,394.8,274.2,393,273,393.3"/>
			<path id="Fill-41" class="st2" d="M334.8,103.9c-1.5,0.5-0.9,3.1,0.7,2.9c0.3,0,0.6-0.2,0.9-0.4l0.2-0.1
				C337.7,105.4,335.9,103.5,334.8,103.9"/>
			<path id="Fill-43" class="st2" d="M431.8,116.2c-1.5,0.5-0.9,3.1,0.7,2.9c0.3,0,0.6-0.2,0.9-0.4l0.2-0.1
				C434.7,117.7,432.9,115.8,431.8,116.2"/>
			<path id="Fill-45" class="st2" d="M222.5,251.5c-1.5,0.5-0.9,3.1,0.7,2.9c0.3,0,0.6-0.2,0.9-0.4l0.2-0.1
				C225.4,252.9,223.7,251.1,222.5,251.5"/>
			<path id="Fill-49" class="st2" d="M204.6,146.8c-1.5,0.5-0.9,3.1,0.7,2.9c0.3,0,0.6-0.2,0.9-0.4l0.2-0.1
				C207.6,148.3,205.8,146.5,204.6,146.8"/>
			<path id="Fill-57" class="st3" d="M294.5,203.8c-0.6-0.1-1.2-0.2-1.8-0.2c-0.2,0-0.4,0-0.6,0c0-0.5,0-1-0.1-1.5
				c-0.1-0.8-0.2-2.3-1.2-2.6c-0.1,0-0.6,1.6-0.6,1.7c-0.1,0.6-0.2,1.2-0.2,1.8c0,0.2,0,0.4,0,0.6c-0.5,0-1,0-1.4,0.1
				c-0.8,0.1-2.3,0.1-2.6,1.1c0,0.1,1.5,0.6,1.7,0.6c0.8,0.2,1.6,0.2,2.4,0.2c0,0.5,0,1,0.1,1.4c0.1,0.8,0.1,2.3,1.1,2.6
				c0.1,0,0.6-1.5,0.6-1.7c0.2-0.8,0.2-1.6,0.2-2.4c0.5,0,1,0,1.5-0.1c0.8-0.1,2.3-0.2,2.6-1.2C296.3,204.2,294.7,203.8,294.5,203.8
				"/>
			<path id="Fill-57_00000121967361894726083390000017467040344007943330_" class="st3" d="M294.5,203.8c-0.6-0.1-1.2-0.2-1.8-0.2
				c-0.2,0-0.4,0-0.6,0c0-0.5,0-1-0.1-1.5c-0.1-0.8-0.2-2.3-1.2-2.6c-0.1,0-0.6,1.6-0.6,1.7c-0.1,0.6-0.2,1.2-0.2,1.8
				c0,0.2,0,0.4,0,0.6c-0.5,0-1,0-1.4,0.1c-0.8,0.1-2.3,0.1-2.6,1.1c0,0.1,1.5,0.6,1.7,0.6c0.8,0.2,1.6,0.2,2.4,0.2
				c0,0.5,0,1,0.1,1.4c0.1,0.8,0.1,2.3,1.1,2.6c0.1,0,0.6-1.5,0.6-1.7c0.2-0.8,0.2-1.6,0.2-2.4c0.5,0,1,0,1.5-0.1
				c0.8-0.1,2.3-0.2,2.6-1.2C296.3,204.2,294.7,203.8,294.5,203.8"/>
			<path id="Fill-49-Copy" class="st2" d="M309.2,152.3c-1.9,0.6-1.1,3.8,0.8,3.6c0.4,0,0.8-0.2,1.1-0.5l0.2-0.1
				C312.8,154.1,310.6,151.9,309.2,152.3"/>
			<path id="Fill-49-Copy-2" class="st2" d="M455.4,38.2c-1.9,0.6-1.1,3.8,0.8,3.6c0.4,0,0.8-0.2,1.1-0.5l0.2-0.1
				C459,40,456.8,37.8,455.4,38.2"/>
			<path id="Fill-51" class="st2" d="M235.3,126.4c-1.5,0.5-0.9,3.1,0.7,2.9c0.3,0,0.6-0.2,0.9-0.4l0.2-0.1
				C238.2,127.9,236.4,126,235.3,126.4"/>
			<path id="Fill-57_00000101807797471578724830000004606790035649071548_" class="st3" d="M294.5,203.8c-0.6-0.1-1.2-0.2-1.8-0.2
				c-0.2,0-0.4,0-0.6,0c0-0.5,0-1-0.1-1.5c-0.1-0.8-0.2-2.3-1.2-2.6c-0.1,0-0.6,1.6-0.6,1.7c-0.1,0.6-0.2,1.2-0.2,1.8
				c0,0.2,0,0.4,0,0.6c-0.5,0-1,0-1.4,0.1c-0.8,0.1-2.3,0.1-2.6,1.1c0,0.1,1.5,0.6,1.7,0.6c0.8,0.2,1.6,0.2,2.4,0.2
				c0,0.5,0,1,0.1,1.4c0.1,0.8,0.1,2.3,1.1,2.6c0.1,0,0.6-1.5,0.6-1.7c0.2-0.8,0.2-1.6,0.2-2.4c0.5,0,1,0,1.5-0.1
				c0.8-0.1,2.3-0.2,2.6-1.2C296.3,204.2,294.7,203.8,294.5,203.8"/>
			<path id="Fill-57_00000157300306238113339600000008534597952460947881_" class="st3" d="M368.7,153.2c-0.6-0.1-1.2-0.2-1.8-0.2
				c-0.2,0-0.4,0-0.6,0c0-0.5,0-1-0.1-1.5c-0.1-0.8-0.2-2.3-1.2-2.6c-0.1,0-0.6,1.6-0.6,1.7c-0.1,0.6-0.2,1.2-0.2,1.8
				c0,0.2,0,0.4,0,0.6c-0.5,0-1,0-1.4,0.1c-0.8,0.1-2.3,0.1-2.6,1.1c0,0.1,1.5,0.6,1.7,0.6c0.8,0.2,1.6,0.2,2.4,0.2
				c0,0.5,0,1,0.1,1.4c0.1,0.8,0.1,2.3,1.1,2.6c0.1,0,0.6-1.5,0.6-1.7c0.2-0.8,0.2-1.6,0.2-2.4c0.5,0,1,0,1.5-0.1
				c0.8-0.1,2.3-0.2,2.6-1.2C370.4,153.7,368.8,153.2,368.7,153.2"/>
			<path id="Fill-57-Copy-3" class="st3" d="M119.5,29.5c-0.6-0.1-1.2-0.2-1.8-0.2c-0.2,0-0.4,0-0.6,0c0-0.5,0-1-0.1-1.5
				c-0.1-0.8-0.2-2.3-1.2-2.6c-0.1,0-0.6,1.6-0.6,1.7c-0.1,0.6-0.2,1.2-0.2,1.8c0,0.2,0,0.4,0,0.6c-0.5,0-1,0-1.4,0.1
				c-0.8,0.1-2.3,0.1-2.6,1.1c0,0.1,1.5,0.6,1.7,0.6c0.8,0.2,1.6,0.2,2.4,0.2c0,0.5,0,1,0.1,1.4c0.1,0.8,0.1,2.3,1.1,2.6
				c0.1,0,0.6-1.5,0.6-1.7c0.2-0.8,0.2-1.6,0.2-2.4c0.5,0,1,0,1.5-0.1c0.8-0.1,2.3-0.2,2.6-1.2C121.2,30,119.6,29.6,119.5,29.5"/>
			<path id="Fill-57-Copy-4" class="st3" d="M37.8,377.1c-0.6-0.1-1.2-0.2-1.8-0.2c-0.2,0-0.4,0-0.6,0c0-0.5,0-1-0.1-1.5
				c-0.1-0.8-0.2-2.3-1.2-2.6c-0.1,0-0.6,1.6-0.6,1.7c-0.1,0.6-0.2,1.2-0.2,1.8c0,0.2,0,0.4,0,0.6c-0.5,0-1,0-1.4,0.1
				c-0.8,0.1-2.3,0.1-2.6,1.1c0,0.1,1.5,0.6,1.7,0.6c0.8,0.2,1.6,0.2,2.4,0.2c0,0.5,0,1,0.1,1.4c0.1,0.8,0.1,2.3,1.1,2.6
				c0.1,0,0.6-1.5,0.6-1.7c0.2-0.8,0.2-1.6,0.2-2.4c0.5,0,1,0,1.5-0.1c0.8-0.1,2.3-0.2,2.6-1.2C39.5,377.6,37.9,377.2,37.8,377.1"/>
			<path id="Fill-57-Copy-5" class="st3" d="M457.3,326.7c-0.6-0.1-1.2-0.2-1.8-0.2c-0.2,0-0.4,0-0.6,0c0-0.5,0-1-0.1-1.5
				c-0.1-0.8-0.2-2.3-1.2-2.6c-0.1,0-0.6,1.6-0.6,1.7c-0.1,0.6-0.2,1.2-0.2,1.8c0,0.2,0,0.4,0,0.6c-0.5,0-1,0-1.4,0.1
				c-0.8,0.1-2.3,0.1-2.6,1.1c0,0.1,1.5,0.6,1.7,0.6c0.8,0.2,1.6,0.2,2.4,0.2c0,0.5,0,1,0.1,1.4c0.1,0.8,0.1,2.3,1.1,2.6
				c0.1,0,0.6-1.5,0.6-1.7c0.2-0.8,0.2-1.6,0.2-2.4c0.5,0,1,0,1.5-0.1c0.8-0.1,2.3-0.2,2.6-1.2C459,327.2,457.4,326.7,457.3,326.7"
				/>
			<path id="Fill-57-Copy-6" class="st3" d="M424,201.2c-0.6-0.1-1.2-0.2-1.8-0.2c-0.2,0-0.4,0-0.6,0c0-0.5,0-1-0.1-1.5
				c-0.1-0.8-0.2-2.3-1.2-2.6c-0.1,0-0.6,1.6-0.6,1.7c-0.1,0.6-0.2,1.2-0.2,1.8c0,0.2,0,0.4,0,0.6c-0.5,0-1,0-1.4,0.1
				c-0.8,0.1-2.3,0.1-2.6,1.1c0,0.1,1.5,0.6,1.7,0.6c0.8,0.2,1.6,0.2,2.4,0.2c0,0.5,0,1,0.1,1.4c0.1,0.8,0.1,2.3,1.1,2.6
				c0.1,0,0.6-1.5,0.6-1.7c0.2-0.8,0.2-1.6,0.2-2.4c0.5,0,1,0,1.5-0.1c0.8-0.1,2.3-0.2,2.6-1.2C425.8,201.7,424.2,201.2,424,201.2"
				/>
			<path id="Fill-57-Copy-7" class="st3" d="M473.9,114.4c-0.6-0.1-1.2-0.2-1.8-0.2c-0.2,0-0.4,0-0.6,0c0-0.5,0-1-0.1-1.5
				c-0.1-0.8-0.2-2.3-1.2-2.6c-0.1,0-0.6,1.6-0.6,1.7c-0.1,0.6-0.2,1.2-0.2,1.8c0,0.2,0,0.4,0,0.6c-0.5,0-1,0-1.4,0.1
				c-0.8,0.1-2.3,0.1-2.6,1.1c0,0.1,1.5,0.6,1.7,0.6c0.8,0.2,1.6,0.2,2.4,0.2c0,0.5,0,1,0.1,1.4c0.1,0.8,0.1,2.3,1.1,2.6
				c0.1,0,0.6-1.5,0.6-1.7c0.2-0.8,0.2-1.6,0.2-2.4c0.5,0,1,0,1.5-0.1c0.8-0.1,2.3-0.2,2.6-1.2C475.6,114.9,474,114.5,473.9,114.4"
				/>
			<path id="Fill-57-Copy-9" class="st3" d="M330.2,24.8c-0.6-0.1-1.2-0.2-1.8-0.2c-0.2,0-0.4,0-0.6,0c0-0.5,0-1-0.1-1.5
				c-0.1-0.8-0.2-2.3-1.2-2.6c-0.1,0-0.6,1.6-0.6,1.7c-0.1,0.6-0.2,1.2-0.2,1.8c0,0.2,0,0.4,0,0.6c-0.5,0-1,0-1.4,0.1
				c-0.8,0.1-2.3,0.1-2.6,1.1c0,0.1,1.5,0.6,1.7,0.6c0.8,0.2,1.6,0.2,2.4,0.2c0,0.5,0,1,0.1,1.4c0.1,0.8,0.1,2.3,1.1,2.6
				c0.1,0,0.6-1.5,0.6-1.7c0.2-0.8,0.2-1.6,0.2-2.4c0.5,0,1,0,1.5-0.1c0.8-0.1,2.3-0.2,2.6-1.2C331.9,25.3,330.3,24.8,330.2,24.8"/>
			<path id="Fill-57-Copy" class="st3" d="M385.3,385.8c-0.6-0.1-1.2-0.2-1.8-0.2c-0.2,0-0.4,0-0.6,0c0-0.5,0-1-0.1-1.5
				c-0.1-0.8-0.2-2.3-1.2-2.6c-0.1,0-0.6,1.6-0.6,1.7c-0.1,0.6-0.2,1.2-0.2,1.8c0,0.2,0,0.4,0,0.6c-0.5,0-1,0-1.4,0.1
				c-0.8,0.1-2.3,0.1-2.6,1.1c0,0.1,1.5,0.6,1.7,0.6c0.8,0.2,1.6,0.2,2.4,0.2c0,0.5,0,1,0.1,1.4c0.1,0.8,0.1,2.3,1.1,2.6
				c0.1,0,0.6-1.5,0.6-1.7c0.2-0.8,0.2-1.6,0.2-2.4c0.5,0,1,0,1.5-0.1c0.8-0.1,2.3-0.2,2.6-1.2C387,386.2,385.4,385.8,385.3,385.8"
				/>
			<path id="Fill-59" class="st3" d="M81.9,124.9c-0.6-0.1-1.2-0.2-1.8-0.2c-0.2,0-0.4,0-0.6,0c0-0.5,0-1-0.1-1.5
				c-0.1-0.8-0.2-2.3-1.2-2.6c-0.1,0-0.6,1.6-0.6,1.7c-0.1,0.6-0.2,1.2-0.2,1.8c0,0.2,0,0.4,0,0.6c-0.5,0-1,0-1.4,0.1
				c-0.8,0.1-2.3,0.1-2.6,1.1c0,0.1,1.5,0.6,1.7,0.6c0.8,0.2,1.6,0.2,2.4,0.2c0,0.5,0,1,0.1,1.4c0.1,0.8,0.1,2.3,1.1,2.6
				c0.1,0,0.6-1.5,0.6-1.7c0.2-0.8,0.2-1.6,0.2-2.4c0.5,0,1,0,1.5-0.1c0.8-0.1,2.3-0.2,2.6-1.2C83.7,125.4,82.1,125,81.9,124.9"/>
			<path id="Fill-59-Copy" class="st3" d="M-55.8,50.9c-0.6-0.1-1.2-0.2-1.8-0.2c-0.2,0-0.4,0-0.6,0c0-0.5,0-1-0.1-1.5
				c-0.1-0.8-0.2-2.3-1.2-2.6c-0.1,0-0.6,1.6-0.6,1.7c-0.1,0.6-0.2,1.2-0.2,1.8c0,0.2,0,0.4,0,0.6c-0.5,0-1,0-1.4,0.1
				c-0.8,0.1-2.3,0.1-2.6,1.1c0,0.1,1.5,0.6,1.7,0.6c0.8,0.2,1.6,0.2,2.4,0.2c0,0.5,0,1,0.1,1.4c0.1,0.8,0.1,2.3,1.1,2.6
				c0.1,0,0.6-1.5,0.6-1.7c0.2-0.8,0.2-1.6,0.2-2.4c0.5,0,1,0,1.5-0.1c0.8-0.1,2.3-0.2,2.6-1.2C-54.1,51.3-55.7,50.9-55.8,50.9"/>
			<path id="Fill-59-Copy-2" class="st3" d="M-85.9,204.9c-0.6-0.1-1.2-0.2-1.8-0.2c-0.2,0-0.4,0-0.6,0c0-0.5,0-1-0.1-1.5
				c-0.1-0.8-0.2-2.3-1.2-2.6c-0.1,0-0.6,1.6-0.6,1.7c-0.1,0.6-0.2,1.2-0.2,1.8c0,0.2,0,0.4,0,0.6c-0.5,0-1,0-1.4,0.1
				c-0.8,0.1-2.3,0.1-2.6,1.1c0,0.1,1.5,0.6,1.7,0.6c0.8,0.2,1.6,0.2,2.4,0.2c0,0.5,0,1,0.1,1.4c0.1,0.8,0.1,2.3,1.1,2.6
				c0.1,0,0.6-1.5,0.6-1.7c0.2-0.8,0.2-1.6,0.2-2.4c0.5,0,1,0,1.5-0.1c0.8-0.1,2.3-0.2,2.6-1.2C-84.1,205.4-85.7,205-85.9,204.9"/>
			<path id="Fill-59-Copy-3" class="st3" d="M-23.8,317c-0.6-0.1-1.2-0.2-1.8-0.2c-0.2,0-0.4,0-0.6,0c0-0.5,0-1-0.1-1.5
				c-0.1-0.8-0.2-2.3-1.2-2.6c-0.1,0-0.6,1.6-0.6,1.7c-0.1,0.6-0.2,1.2-0.2,1.8c0,0.2,0,0.4,0,0.6c-0.5,0-1,0-1.4,0.1
				c-0.8,0.1-2.3,0.1-2.6,1.1c0,0.1,1.5,0.6,1.7,0.6c0.8,0.2,1.6,0.2,2.4,0.2c0,0.5,0,1,0.1,1.4c0.1,0.8,0.1,2.3,1.1,2.6
				c0.1,0,0.6-1.5,0.6-1.7c0.2-0.8,0.2-1.6,0.2-2.4c0.5,0,1,0,1.5-0.1c0.8-0.1,2.3-0.2,2.6-1.2C-22.1,317.4-23.7,317-23.8,317"/>
			<path id="Fill-59-Copy-4" class="st3" d="M76.2,287c-0.6-0.1-1.2-0.2-1.8-0.2c-0.2,0-0.4,0-0.6,0c0-0.5,0-1-0.1-1.5
				c-0.1-0.8-0.2-2.3-1.2-2.6c-0.1,0-0.6,1.6-0.6,1.7c-0.1,0.6-0.2,1.2-0.2,1.8c0,0.2,0,0.4,0,0.6c-0.5,0-1,0-1.4,0.1
				c-0.8,0.1-2.3,0.1-2.6,1.1c0,0.1,1.5,0.6,1.7,0.6c0.8,0.2,1.6,0.2,2.4,0.2c0,0.5,0,1,0.1,1.4c0.1,0.8,0.1,2.3,1.1,2.6
				c0.1,0,0.6-1.5,0.6-1.7c0.2-0.8,0.2-1.6,0.2-2.4c0.5,0,1,0,1.5-0.1c0.8-0.1,2.3-0.2,2.6-1.2C78,287.4,76.4,287,76.2,287"/>
			<path id="Fill-61" class="st3" d="M30.9,246.9c-0.6-0.1-1.2-0.2-1.8-0.2c-0.2,0-0.4,0-0.6,0c0-0.5,0-1-0.1-1.5
				c-0.1-0.8-0.2-2.3-1.2-2.6c-0.1,0-0.6,1.6-0.6,1.7c-0.1,0.6-0.2,1.2-0.2,1.8c0,0.2,0,0.4,0,0.6c-0.5,0-1,0-1.4,0.1
				c-0.8,0.1-2.3,0.1-2.6,1.1c0,0.1,1.5,0.6,1.7,0.6c0.8,0.2,1.6,0.2,2.4,0.2c0,0.5,0,1,0.1,1.4c0.1,0.8,0.1,2.3,1.1,2.6
				c0.1,0,0.6-1.5,0.6-1.7c0.2-0.8,0.2-1.6,0.2-2.4c0.5,0,1,0,1.5-0.1c0.8-0.1,2.3-0.2,2.6-1.2C32.6,247.4,31,247,30.9,246.9"/>
			<path id="Fill-71" class="st3" d="M145.9,267.4c-0.6-0.1-1.2-0.2-1.8-0.2c-0.2,0-0.4,0-0.6,0c0-0.5,0-1-0.1-1.5
				c-0.1-0.8-0.2-2.3-1.2-2.6c-0.1,0-0.6,1.6-0.6,1.7c-0.1,0.6-0.2,1.2-0.2,1.8c0,0.2,0,0.4,0,0.6c-0.5,0-1,0-1.4,0.1
				c-0.8,0.1-2.3,0.1-2.6,1.1c0,0.1,1.5,0.6,1.7,0.6c0.8,0.2,1.6,0.2,2.4,0.2c0,0.5,0,1,0.1,1.4c0.1,0.8,0.1,2.3,1.1,2.6
				c0.1,0,0.6-1.5,0.6-1.7c0.2-0.8,0.2-1.6,0.2-2.4c0.5,0,1,0,1.5-0.1c0.8-0.1,2.3-0.2,2.6-1.2C147.7,267.9,146.1,267.5,145.9,267.4
				"/>
		</g>
		<g id="chica-copy-2" transform="translate(276.000000, 38.000000)">
			<path id="Path" class="st4" d="M-1.3,22.2c5.2-7.3,15.2-3.7,21.3-1.3c12.9,6.4,5.8,18.5-6.5,21.3C1.2,43.4-8.5,32.4-1.3,22.2z"/>
			<path id="Path_00000008836219273676883180000012160953885717776010_" class="st5" d="M11.8,55.3c0,0.2,0.3,2.5,0.5,2.7l0.3,0.8
				c0.2,0.5,0.5,1.1,0.8,1.7c0.5,1.1,1.2,2.1,1.8,3.1c1.3,2,2.9,3.9,4.6,5.6l0.3,0.3l0,0c0.1,0.1,0.2,0.1,0.3,0.1
				c0.4,0.1,0.8,0.2,1.3,0.1c1.1-0.1,2.3-0.3,3.4-0.7c1.2-0.4,2.4-0.8,3.6-1.3c1.2-0.5,2.4-1,3.5-1.5l1.4,2.2
				c-2.2,1.6-4.6,3.1-7.1,4.2c-1.3,0.6-2.8,1.1-4.2,1.4c-0.9,0.1-1.8,0.1-2.7,0c-0.6-0.1-1.2-0.3-1.7-0.5c-0.3-0.2-0.5-0.3-0.8-0.5
				L16.9,73v-0.1l-0.2-0.2c-1.1-0.9-2.1-1.9-3-2.9c-0.5-0.5-0.9-1.1-1.4-1.7c-0.4-0.5-0.9-1.1-1.3-1.7c-0.8-1.2-1.6-2.4-2.2-3.6
				c-0.3-0.6-0.6-1.3-0.9-1.9c-0.2-0.3-0.3-0.7-0.4-1c-0.1-0.3-0.3-0.7-0.4-1.1L11.8,55.3z"/>
			<path id="Path_00000034786570520181232020000007631024488815557565_" class="st6" d="M32.5,66l4.2-1l-1.5,5c0,0-3.6-0.2-4.7-1.9
				l0.5-0.8C31.2,66.6,31.8,66.1,32.5,66z"/>
			<polygon id="Path_00000116234960772489707570000004290629694091407255_" class="st6" points="41,66.7 39.1,70.2 35.2,70 
				36.8,65.1 			"/>
			<path id="Path_00000026146671956988831100000013218306841524402579_" class="st6" d="M-25.8,15.2l0.6-5.4L-21,13
				c0,0-0.9,3.5-4,3.1L-25.8,15.2z"/>
			<polygon id="Path_00000127015185798551835750000014086272466783536536_" class="st6" points="-24.6,7.1 -20.4,7 -21,13 
				-25.2,9.8 			"/>
			<polygon id="Path_00000054235684299052291750000001372884833276334237_" class="st7" points="-98.7,113.2 -98.8,118.2 
				-91.5,119.3 -87.1,115 			"/>
			<path id="Path_00000037663261833528902150000013657925211487413390_" class="st4" d="M-97.6,118.4l1.7-5.4c0.1-0.2,0-0.4-0.2-0.5
				l-4.1-1.9c-0.2-0.1-0.4-0.1-0.6,0c-0.2,0.1-0.4,0.2-0.4,0.4l0,0c-0.6,1.9-0.7,2.8-1.5,5.2c-0.5,1.5-1.7,4.6-2.3,6.6
				c-0.6,2,1.3,2.7,1.7,2c1.2-2.3,3-4.3,5.2-5.7C-97.9,118.9-97.7,118.7-97.6,118.4z"/>
			<path id="Path_00000166657711338259539220000014735747930538381224_" class="st4" d="M-60.3,162.8l-2.1-5.5
				c-0.1-0.2-0.3-0.3-0.5-0.3l-4.8,0.5c-0.4,0-0.7,0.4-0.7,0.8v0.2c0.8,1.9,1.2,2.8,2.2,5.3c0.6,1.5,2.3,6.5,3.1,8.5s3,1.7,2.9,0.8
				c-0.6-4-0.6-7.7,0-9.3C-60.2,163.4-60.2,163.1-60.3,162.8z"/>
			<path id="Path_00000080907998049104484190000006307330051699227537_" class="st5" d="M11.8,55.3c0,0,1.4,2.1-19.7,23l-16.5-11.9
				c5-6.5,8.1-10.6,14.9-26.8c2.7,1.2,5.2,2.6,7.7,4.1c2.6,1.6,5.1,3.5,7.5,5.4C8.7,51.9,11.8,55.3,11.8,55.3z"/>
			<path id="Path_00000062159021963886737570000014195305597075564958_" class="st6" d="M5.7,34.7c-1.6,3.4-4.9,9.2-8.4,9.6
				c0,0-1.4,3.6,4.1,7.5c6.1,4.3,5.1-1,5.1-1c-2.7-3.2-0.9-5.5,1.4-7.4L5.7,34.7z"/>
			<path id="Path_00000019664741440627537710000008717228509600539839_" class="st8" d="M6.5,38.3l1.3,5.2c-0.5,0.4-1,0.9-1.5,1.4
				c-1.1-1.1-2.2-3.6-1.4-5C5.3,39.4,5.9,38.8,6.5,38.3z"/>
			<path id="Path_00000082335965013765344230000015421805045234066364_" class="st6" d="M7.1,26.7c-2.4,6-3.5,8.5-1.9,12.9
				c0.9,2.9,3.3,5.2,6.3,5.8c3,0.6,6.1-0.5,8.1-2.8c3.7-4.7,6.9-13.7,2.2-18.7c-1.6-1.7-3.8-2.8-6.1-2.9c-2.3-0.1-4.6,0.7-6.3,2.3
				C8.3,24.2,7.6,25.4,7.1,26.7L7.1,26.7z"/>
			<path id="Path_00000071560070294352768950000005339002628030537861_" class="st4" d="M3.9,31.1c-0.6,4.8,9.4-5.9,16.1-2.7
				c4.9,2.4,11.8,3,13-1.1c1.2-4.1-12.2-12.9-21.5-10.9C2.7,18.3,4.6,24.8,3.9,31.1z"/>
			<path id="Path_00000034060681733207422410000014414336698594988955_" class="st6" d="M3.7,31.6c-0.4,1.2-0.3,2.5,0.2,3.6
				c0.7,1.5,2.3,1.1,3.1-0.2c0.8-1.4,1.2-3.4,0-4.5c-0.9-0.7-2.2-0.6-3,0.3C3.9,31.1,3.8,31.3,3.7,31.6z"/>
			<g>
				<path class="st6" d="M-7.9,78.3l-14.2-10.2c0,0-0.4,30.4-4.4,49.8l9.9,4.9C-10.9,105.2-7.9,78.3-7.9,78.3z"/>
				<path class="st7" d="M-62.9,156.9l2.3,6.2c0,0,28.9-15.7,38.5-28.4c2-2.7,3.8-6.9,5.5-11.9l-9.9-4.9c-0.9,4.4-2,8.3-3.4,11.1
					C-35.1,139.8-62.9,156.9-62.9,156.9z"/>
			</g>
			<path id="Path_00000065066663698519772910000012016321284762176175_" class="st9" d="M-6.7,77.8c0-0.1,0-0.3-0.1-0.4l-16.8-12
				c-0.1-0.1-0.2-0.1-0.3-0.1l-1.8,0.9c-0.1,0.1,0,0.3,0.1,0.4l17.3,12.5c0.1,0.1,0.3,0.1,0.4,0"/>
			<path id="Path_00000138535531813239771640000009632683126403631019_" class="st4" d="M15.2,32.4c-0.2,0.5-0.2,1,0.2,1.1
				c0.3,0.1,0.7-0.1,1-0.6s0.1-1-0.2-1.1C15.9,31.7,15.4,31.9,15.2,32.4z"/>
			<path id="Path_00000036950795757721821460000001189730525882947225_" class="st4" d="M20.6,34.9c-0.2,0.4-0.2,0.8,0.2,1.1
				c0.3,0.2,0.7-0.1,1-0.6c0.2-0.5,0.1-1-0.2-1.1C21.3,34.2,20.8,34.5,20.6,34.9z"/>
			<path id="Path_00000075865230619624472300000015847506913664089987_" class="st4" d="M21.4,34.3l1.3,0.2
				C22.7,34.5,21.7,35.1,21.4,34.3z"/>
			<path id="Path_00000093153794165462376370000011697099279384528019_" class="st8" d="M18.8,35.1c-0.1,1.3,0,2.6,0.3,3.8
				c-0.7,0.1-1.3,0-1.9-0.5L18.8,35.1z"/>
			<path id="Path_00000101089786195181039060000015041493004687484039_" class="st4" d="M14.7,39.5c0.1,0,0.1,0,0.2,0
				c0.1-0.1,0.1-0.2,0-0.2c-1.2-0.5-2.1-1.6-2.4-2.9c0,0,0-0.2-0.2-0.1l0,0c-0.1,0-0.2,0.1-0.2,0.2C12.5,37.9,13.4,39,14.7,39.5
				L14.7,39.5z"/>
			<path id="Path_00000130613978036931429600000012358104660258610608_" class="st4" d="M15.1,30.4c0.1,0,0.1,0,0.2,0
				c0.7-0.3,1.5-0.3,2.2,0.1c0.1,0.1,0.3,0.1,0.4,0c0.1-0.1,0.1-0.3,0-0.4c-0.9-0.5-1.9-0.6-2.8-0.2c-0.2,0.1-0.2,0.3-0.2,0.4l0,0
				C15,30.4,15,30.4,15.1,30.4z"/>
			<path id="Path_00000067229504254238704650000003486513913156209831_" class="st4" d="M24.3,33.6h0.1c0.2,0,0.3-0.2,0.3-0.4
				c-0.1-1-0.7-1.8-1.6-2.3c-0.2-0.1-0.3,0-0.4,0.2c0,0.1,0,0.2,0,0.2c0,0.1,0.1,0.1,0.2,0.2c0.7,0.4,1.2,1.1,1.2,1.9
				C24.1,33.5,24.1,33.6,24.3,33.6L24.3,33.6z"/>
			<path id="Path_00000147925461560797847050000007773596648457753008_" class="st5" d="M-11,45l-3.3-1.8l-0.5-0.3l-0.9-0.6
				c-0.6-0.4-1.2-0.8-1.7-1.3c-1.1-0.9-2.2-1.9-3.2-2.9c-1-1-1.9-2.2-2.7-3.3c-0.4-0.6-0.8-1.2-1.2-1.8c-0.4-0.6-0.7-1.2-1.1-1.9
				c-1.4-2.7-2.1-5.7-1.9-8.7c0.1-1.4,0.3-2.9,0.7-4.2c0.2-0.7,0.4-1.4,0.7-2.1c0.2-0.7,0.5-1.4,0.8-2.1l2.3,1
				c-0.3,1.2-0.5,2.4-0.6,3.6c-0.1,1.2-0.1,2.4,0,3.7c0.1,2.3,0.8,4.5,2,6.5c1.3,2.1,2.9,4,4.6,5.7c0.9,0.9,1.8,1.6,2.7,2.4
				c0.5,0.4,1,0.7,1.5,1.1l0.7,0.5l0.4,0.2l2.9,1.3L-11,45z"/>
			<path id="Path_00000025414368333672154370000012345400631855217583_" class="st4" d="M16,31.8l1.3,0.2C17.3,32,16.3,32.6,16,31.8
				z"/>
		</g>
		<g id="Group-7-Copy" transform="translate(522.000000, 136.000000)" class="st10">
			<circle id="Oval_00000003076102627900214060000003948045982589642889_" class="st5" cx="-116.4" cy="12.4" r="14.7"/>
			<path id="Path_00000053547284780396178730000009456639867606254727_" class="st5" d="M-107.1,1c-6.7-2.1-14,0.9-17.3,7.2
				s-1.7,14,3.8,18.4c1.4,0.4,2.8,0.6,4.3,0.6c6.2,0,11.8-3.9,13.9-9.8S-102.2,4.9-107.1,1L-107.1,1z"/>
		</g>
	</g>
</g>
<g id="Stories-maquetados_00000147218454713925831310000007613492634746387882_">
	<g id="Derecha-resultados">
		<g id="Forma2-Copy-3" transform="translate(71.794872, 213.000000)">
			
				<linearGradient id="Fill-1_00000181806966570939832120000007057907598152927918_" gradientUnits="userSpaceOnUse" x1="-197.8807" y1="396.0022" x2="-197.0508" y2="396.0063" gradientTransform="matrix(627.5277 0 0 -277.9161 124646.7344 110150.6953)">
				<stop  offset="0" style="stop-color:#164372"/>
				<stop  offset="1" style="stop-color:#04458F"/>
			</linearGradient>
			
				<path id="Fill-1_00000093172307807119172100000015042059660873137821_" style="fill-rule:evenodd;clip-rule:evenodd;fill:url(#Fill-1_00000181806966570939832120000007057907598152927918_);" d="
				M1002.3-16.9c-0.3-0.4-0.6-0.8-0.9-1.2c-31.6-42.5-99.7-27.8-140.3-8.1c-27,13.1-48.8,34.1-73.8,50.3
				c-27.8,18.1-59.5,24.9-92.4,24.5c-28.8-0.3-57-6.1-85.5-9.1c-29.2-3.1-58.7-4.3-88.1-3.6c-33.7,0.9-70,3.6-100.4,19.6
				c-34,17.9-50.2,54-33.5,89.8c15,32.3,47.1,58.7,79.8,71.5c44.5,17.5,93.8,20.1,141,17.2c50.6-3.1,101.4-6.9,151.3-16
				c10.9-2,21.6-4.4,32.4-6.7c83.6-17.9,180-55.8,213-142.6c5-13.1,8.1-27,9.1-41C1015.1,12.3,1011.3-4.2,1002.3-16.9"/>
		</g>
		<g id="estrellas-copy-3">
			<path id="Fill-33_00000007390169605334697500000012002952349611588268_" class="st2" d="M753.7,215.8c-1.5,0.5-0.9,3.1,0.7,3
				c0.3,0,0.6-0.2,0.9-0.4l0.2-0.1C756.6,217.3,754.8,215.4,753.7,215.8"/>
			<path id="Fill-33_00000000911875803221056210000014229064348544217512_" class="st2" d="M713.4,306.6c-1.5,0.5-0.9,3.1,0.7,3
				c0.3,0,0.6-0.2,0.9-0.4l0.2-0.1C716.4,308.1,714.6,306.2,713.4,306.6"/>
			<path id="Fill-33_00000158716930032891755270000008285060842551807617_" class="st2" d="M894.6,326.8c-1.5,0.5-0.9,3.1,0.7,3
				c0.3,0,0.6-0.2,0.9-0.4l0.2-0.1C897.5,328.3,895.7,326.4,894.6,326.8"/>
			<path id="Fill-33_00000079487221779931830010000004304310448006009755_" class="st2" d="M924.8,286.4c-1.5,0.5-0.9,3.1,0.7,3
				c0.3,0,0.6-0.2,0.9-0.4l0.2-0.1C927.7,287.9,925.9,286,924.8,286.4"/>
			<path id="Fill-33_00000115489395997741002790000013504418661209577353_" class="st2" d="M944.9,215.8c-1.5,0.5-0.9,3.1,0.7,3
				c0.3,0,0.6-0.2,0.9-0.4l0.2-0.1C947.9,217.3,946.1,215.4,944.9,215.8"/>
			<path id="Fill-33_00000042730520100834703050000006533238291898133167_" class="st2" d="M914.7,124.9c-1.5,0.5-0.9,3.1,0.7,3
				c0.3,0,0.6-0.2,0.9-0.4l0.2-0.1C917.7,126.4,915.9,124.5,914.7,124.9"/>
			<path id="Fill-33_00000170251966912630874940000001346223801274799765_" class="st2" d="M965.2,94.7c-1.5,0.5-0.9,3.1,0.7,3
				c0.3,0,0.6-0.2,0.9-0.4l0.2-0.1C968.1,96.1,966.3,94.3,965.2,94.7"/>
			<path id="Fill-33_00000105426976200530759330000000475080688637617048_" class="st2" d="M995.5,84.6c-1.5,0.5-0.9,3.1,0.7,3
				c0.3,0,0.6-0.2,0.9-0.4l0.2-0.1C998.4,86,996.6,84.2,995.5,84.6"/>
			<path id="Fill-33-Copy_00000006672588098473917520000017301815043330734485_" class="st2" d="M829.9,248.6
				c-1.5,0.5-0.9,3.1,0.7,3c0.3,0,0.6-0.2,0.9-0.4l0.2-0.1C832.8,250.1,831,248.2,829.9,248.6"/>
			<path id="Fill-33-Copy_00000008827169129801789630000003956200056129044393_" class="st2" d="M880,175.9c-1.5,0.5-0.9,3.1,0.7,3
				c0.3,0,0.6-0.2,0.9-0.4l0.2-0.1C883,177.4,881.2,175.6,880,175.9"/>
			<path id="Fill-33-Copy_00000161621302310513802770000010494064888782636200_" class="st2" d="M855.9,369.6
				c-1.5,0.5-0.9,3.1,0.7,3c0.3,0,0.6-0.2,0.9-0.4l0.2-0.1C858.8,371.1,857,369.2,855.9,369.6"/>
			<path id="Fill-33-Copy_00000127731486286560695130000001492073225927494531_" class="st2" d="M718.5,377.1
				c-1.5,0.5-0.9,3.1,0.7,3c0.3,0,0.6-0.2,0.9-0.4l0.2-0.1C721.4,378.6,719.6,376.7,718.5,377.1"/>
			<path id="Fill-33-Copy_00000165213081292673795630000016160197539583723174_" class="st2" d="M718.5,377.1
				c-1.5,0.5-0.9,3.1,0.7,3c0.3,0,0.6-0.2,0.9-0.4l0.2-0.1C721.4,378.6,719.6,376.7,718.5,377.1"/>
			<path id="Fill-41_00000170966095080510169860000002396641552203657605_" class="st2" d="M721.7,59.7c-1.5,0.5-0.9,3.1,0.7,3
				c0.3,0,0.6-0.2,0.9-0.4l0.2-0.1C724.7,61.2,722.9,59.3,721.7,59.7"/>
			<path id="Fill-43_00000072249374055727916070000003352444637293488303_" class="st2" d="M819.3,72.1c-1.5,0.5-0.9,3.1,0.7,3
				c0.3,0,0.6-0.2,0.9-0.4l0.2-0.1C822.3,73.6,820.5,71.7,819.3,72.1"/>
			<path id="Fill-45_00000040565415180686342920000010099088619436723644_" class="st2" d="M608.8,208.6c-1.5,0.5-0.9,3.1,0.7,3
				c0.3,0,0.6-0.2,0.9-0.4l0.2-0.1C611.7,210.1,609.9,208.2,608.8,208.6"/>
			<path id="Fill-49_00000008124728932927600330000017040267595739026082_" class="st2" d="M590.8,103c-1.5,0.5-0.9,3.1,0.7,3
				c0.3,0,0.6-0.2,0.9-0.4l0.2-0.1C593.8,104.5,592,102.6,590.8,103"/>
			<path id="Fill-49-Copy-3_00000182490154376861908600000001563886410319144606_" class="st2" d="M380.5-45.7
				c-1.5,0.5-0.9,3.1,0.7,3c0.3,0,0.6-0.2,0.9-0.4l0.2-0.1C383.4-44.2,381.6-46.1,380.5-45.7"/>
			<path id="Fill-57_00000028317001249202372930000012906963724174247090_" class="st3" d="M681.2,160.4c-0.6-0.1-1.2-0.2-1.8-0.2
				c-0.2,0-0.4,0-0.6,0c0-0.5,0-1-0.1-1.5c-0.1-0.9-0.2-2.3-1.2-2.6c-0.1,0-0.6,1.6-0.6,1.7c-0.1,0.6-0.2,1.2-0.2,1.8
				c0,0.2,0,0.4,0,0.6c-0.5,0-1,0-1.5,0.1c-0.8,0.1-2.4,0.1-2.7,1.2c0,0.1,1.6,0.6,1.7,0.6c0.8,0.2,1.6,0.2,2.4,0.2
				c0,0.5,0,1,0.1,1.5c0.1,0.8,0.1,2.4,1.1,2.7c0.1,0,0.6-1.6,0.6-1.7c0.2-0.8,0.2-1.6,0.2-2.4c0.5,0,1,0,1.5-0.1
				c0.8-0.1,2.3-0.2,2.6-1.2C683,160.9,681.4,160.5,681.2,160.4"/>
			<path id="Fill-57_00000054239737808286780540000000065516072085977523_" class="st3" d="M681.2,160.4c-0.6-0.1-1.2-0.2-1.8-0.2
				c-0.2,0-0.4,0-0.6,0c0-0.5,0-1-0.1-1.5c-0.1-0.9-0.2-2.3-1.2-2.6c-0.1,0-0.6,1.6-0.6,1.7c-0.1,0.6-0.2,1.2-0.2,1.8
				c0,0.2,0,0.4,0,0.6c-0.5,0-1,0-1.5,0.1c-0.8,0.1-2.4,0.1-2.7,1.2c0,0.1,1.6,0.6,1.7,0.6c0.8,0.2,1.6,0.2,2.4,0.2
				c0,0.5,0,1,0.1,1.5c0.1,0.8,0.1,2.4,1.1,2.7c0.1,0,0.6-1.6,0.6-1.7c0.2-0.8,0.2-1.6,0.2-2.4c0.5,0,1,0,1.5-0.1
				c0.8-0.1,2.3-0.2,2.6-1.2C683,160.9,681.4,160.5,681.2,160.4"/>
			<path id="Fill-49-Copy_00000126312374892710562510000013199802847972897211_" class="st2" d="M696,108.6
				c-1.9,0.6-1.1,3.8,0.8,3.7c0.4,0,0.8-0.2,1.1-0.5l0.2-0.1C699.7,110.4,697.4,108.1,696,108.6"/>
			<path id="Fill-49-Copy-2_00000121267699888277690790000017501193470741894587_" class="st2" d="M843.1-6.5
				c-1.9,0.6-1.1,3.8,0.8,3.7c0.4,0,0.8-0.2,1.1-0.5l0.2-0.1C846.7-4.7,844.5-7,843.1-6.5"/>
			<path id="Fill-51_00000080203137337669085690000006717508649527678872_" class="st2" d="M621.6,82.4c-1.5,0.5-0.9,3.1,0.7,3
				c0.3,0,0.6-0.2,0.9-0.4l0.2-0.1C624.6,83.9,622.8,82,621.6,82.4"/>
			<path id="Fill-57_00000157280945535008715930000010669669847284652938_" class="st3" d="M681.2,160.4c-0.6-0.1-1.2-0.2-1.8-0.2
				c-0.2,0-0.4,0-0.6,0c0-0.5,0-1-0.1-1.5c-0.1-0.9-0.2-2.3-1.2-2.6c-0.1,0-0.6,1.6-0.6,1.7c-0.1,0.6-0.2,1.2-0.2,1.8
				c0,0.2,0,0.4,0,0.6c-0.5,0-1,0-1.5,0.1c-0.8,0.1-2.4,0.1-2.7,1.2c0,0.1,1.6,0.6,1.7,0.6c0.8,0.2,1.6,0.2,2.4,0.2
				c0,0.5,0,1,0.1,1.5c0.1,0.8,0.1,2.4,1.1,2.7c0.1,0,0.6-1.6,0.6-1.7c0.2-0.8,0.2-1.6,0.2-2.4c0.5,0,1,0,1.5-0.1
				c0.8-0.1,2.3-0.2,2.6-1.2C683,160.9,681.4,160.5,681.2,160.4"/>
			<path id="Fill-57_00000081640743449583529110000008700147261676625796_" class="st3" d="M755.8,109.4c-0.6-0.1-1.2-0.2-1.8-0.2
				c-0.2,0-0.4,0-0.6,0c0-0.5,0-1-0.1-1.5c-0.1-0.9-0.2-2.3-1.2-2.6c-0.1,0-0.6,1.6-0.6,1.7c-0.1,0.6-0.2,1.2-0.2,1.8
				c0,0.2,0,0.4,0,0.6c-0.5,0-1,0-1.5,0.1c-0.8,0.1-2.4,0.1-2.7,1.2c0,0.1,1.6,0.6,1.7,0.6c0.8,0.2,1.6,0.2,2.4,0.2
				c0,0.5,0,1,0.1,1.5c0.1,0.8,0.1,2.4,1.1,2.7c0.1,0,0.6-1.6,0.6-1.7c0.2-0.8,0.2-1.6,0.2-2.4c0.5,0,1,0,1.5-0.1
				c0.8-0.1,2.3-0.2,2.6-1.2C757.6,109.9,756,109.5,755.8,109.4"/>
			<path id="Fill-57-Copy-3_00000175288076747207641300000005225699475068077987_" class="st3" d="M505.1-15.3
				c-0.6-0.1-1.2-0.2-1.8-0.2c-0.2,0-0.4,0-0.6,0c0-0.5,0-1-0.1-1.5c-0.1-0.9-0.2-2.3-1.2-2.6c-0.1,0-0.6,1.6-0.6,1.7
				c-0.1,0.6-0.2,1.2-0.2,1.8c0,0.2,0,0.4,0,0.6c-0.5,0-1,0-1.5,0.1c-0.8,0.1-2.4,0.1-2.7,1.2c0,0.1,1.6,0.6,1.7,0.6
				c0.8,0.2,1.6,0.2,2.4,0.2c0,0.5,0,1,0.1,1.5c0.1,0.8,0.1,2.4,1.1,2.7c0.1,0,0.6-1.6,0.6-1.7c0.2-0.8,0.2-1.6,0.2-2.4
				c0.5,0,1,0,1.5-0.1c0.8-0.1,2.3-0.2,2.6-1.2C506.9-14.9,505.3-15.3,505.1-15.3"/>
			<path id="Fill-57-Copy-4_00000046314014159375306690000014861127537811958201_" class="st3" d="M453.1,375.7
				c-0.6-0.1-1.2-0.2-1.8-0.2c-0.2,0-0.4,0-0.6,0c0-0.5,0-1-0.1-1.5c-0.1-0.9-0.2-2.3-1.2-2.6c-0.1,0-0.6,1.6-0.6,1.7
				c-0.1,0.6-0.2,1.2-0.2,1.8c0,0.2,0,0.4,0,0.6c-0.5,0-1,0-1.5,0.1c-0.8,0.1-2.4,0.1-2.7,1.2c0,0.1,1.6,0.6,1.7,0.6
				c0.8,0.2,1.6,0.2,2.4,0.2c0,0.5,0,1,0.1,1.5c0.1,0.8,0.1,2.4,1.1,2.7c0.1,0,0.6-1.6,0.6-1.7c0.2-0.8,0.2-1.6,0.2-2.4
				c0.5,0,1,0,1.5-0.1c0.8-0.1,2.3-0.2,2.6-1.2C454.9,376.2,453.3,375.8,453.1,375.7"/>
			<path id="Fill-57-Copy-5_00000070115198738249781240000000945682394787246502_" class="st3" d="M845,284.5
				c-0.6-0.1-1.2-0.2-1.8-0.2c-0.2,0-0.4,0-0.6,0c0-0.5,0-1-0.1-1.5c-0.1-0.9-0.2-2.3-1.2-2.6c-0.1,0-0.6,1.6-0.6,1.7
				c-0.1,0.6-0.2,1.2-0.2,1.8c0,0.2,0,0.4,0,0.6c-0.5,0-1,0-1.5,0.1c-0.8,0.1-2.4,0.1-2.7,1.2c0,0.1,1.6,0.6,1.7,0.6
				c0.8,0.2,1.6,0.2,2.4,0.2c0,0.5,0,1,0.1,1.5c0.1,0.8,0.1,2.4,1.1,2.7c0.1,0,0.6-1.6,0.6-1.7c0.2-0.8,0.2-1.6,0.2-2.4
				c0.5,0,1,0,1.5-0.1c0.8-0.1,2.3-0.2,2.6-1.2C846.7,285,845.1,284.5,845,284.5"/>
			<path id="Fill-57-Copy-6_00000079465164064160774940000001694787927589175170_" class="st3" d="M811.5,157.8
				c-0.6-0.1-1.2-0.2-1.8-0.2c-0.2,0-0.4,0-0.6,0c0-0.5,0-1-0.1-1.5c-0.1-0.9-0.2-2.3-1.2-2.6c-0.1,0-0.6,1.6-0.6,1.7
				c-0.1,0.6-0.2,1.2-0.2,1.8c0,0.2,0,0.4,0,0.6c-0.5,0-1,0-1.5,0.1c-0.8,0.1-2.4,0.1-2.7,1.2c0,0.1,1.6,0.6,1.7,0.6
				c0.8,0.2,1.6,0.2,2.4,0.2c0,0.5,0,1,0.1,1.5c0.1,0.8,0.1,2.4,1.1,2.7c0.1,0,0.6-1.6,0.6-1.7c0.2-0.8,0.2-1.6,0.2-2.4
				c0.5,0,1,0,1.5-0.1c0.8-0.1,2.3-0.2,2.6-1.2C813.3,158.3,811.7,157.9,811.5,157.8"/>
			<path id="Fill-57-Copy-10" class="st3" d="M996.8,141.4c-0.6-0.1-1.2-0.2-1.8-0.2c-0.2,0-0.4,0-0.6,0c0-0.5,0-1-0.1-1.5
				c-0.1-0.9-0.2-2.3-1.2-2.6c-0.1,0-0.6,1.6-0.6,1.7c-0.1,0.6-0.2,1.2-0.2,1.8c0,0.2,0,0.4,0,0.6c-0.5,0-1,0-1.5,0.1
				c-0.8,0.1-2.4,0.1-2.7,1.2c0,0.1,1.6,0.6,1.7,0.6c0.8,0.2,1.6,0.2,2.4,0.2c0,0.5,0,1,0.1,1.5c0.1,0.8,0.1,2.4,1.1,2.7
				c0.1,0,0.6-1.6,0.6-1.7c0.2-0.8,0.2-1.6,0.2-2.4c0.5,0,1,0,1.5-0.1c0.8-0.1,2.3-0.2,2.6-1.2C998.6,141.9,997,141.5,996.8,141.4"
				/>
			<path id="Fill-57-Copy-11" class="st3" d="M1023,181.8c-0.6-0.1-1.2-0.2-1.8-0.2c-0.2,0-0.4,0-0.6,0c0-0.5,0-1-0.1-1.5
				c-0.1-0.9-0.2-2.3-1.2-2.6c-0.1,0-0.6,1.6-0.6,1.7c-0.1,0.6-0.2,1.2-0.2,1.8c0,0.2,0,0.4,0,0.6c-0.5,0-1,0-1.5,0.1
				c-0.8,0.1-2.4,0.1-2.7,1.2c0,0.1,1.6,0.6,1.7,0.6c0.8,0.2,1.6,0.2,2.4,0.2c0,0.5,0,1,0.1,1.5c0.1,0.8,0.1,2.4,1.1,2.7
				c0.1,0,0.6-1.6,0.6-1.7c0.2-0.8,0.2-1.6,0.2-2.4c0.5,0,1,0,1.5-0.1c0.8-0.1,2.3-0.2,2.6-1.2
				C1024.8,182.3,1023.2,181.8,1023,181.8"/>
			<path id="Fill-57-Copy-12" class="st3" d="M1028.1,301.9c-0.6-0.1-1.2-0.2-1.8-0.2c-0.2,0-0.4,0-0.6,0c0-0.5,0-1-0.1-1.5
				c-0.1-0.9-0.2-2.3-1.2-2.6c-0.1,0-0.6,1.6-0.6,1.7c-0.1,0.6-0.2,1.2-0.2,1.8c0,0.2,0,0.4,0,0.6c-0.5,0-1,0-1.5,0.1
				c-0.8,0.1-2.4,0.1-2.7,1.2c0,0.1,1.6,0.6,1.7,0.6c0.8,0.2,1.6,0.2,2.4,0.2c0,0.5,0,1,0.1,1.5c0.1,0.8,0.1,2.4,1.1,2.7
				c0.1,0,0.6-1.6,0.6-1.7c0.2-0.8,0.2-1.6,0.2-2.4c0.5,0,1,0,1.5-0.1c0.8-0.1,2.3-0.2,2.6-1.2
				C1029.8,302.4,1028.2,302,1028.1,301.9"/>
			<path id="Fill-57-Copy-7_00000032637735304873450060000004927261870829390471_" class="st3" d="M865.2,97
				c-0.6-0.1-1.2-0.2-1.8-0.2c-0.2,0-0.4,0-0.6,0c0-0.5,0-1-0.1-1.5c-0.1-0.9-0.2-2.3-1.2-2.6c-0.1,0-0.6,1.6-0.6,1.7
				c-0.1,0.6-0.2,1.2-0.2,1.8c0,0.2,0,0.4,0,0.6c-0.5,0-1,0-1.5,0.1c-0.8,0.1-2.4,0.1-2.7,1.2c0,0.1,1.6,0.6,1.7,0.6
				c0.8,0.2,1.6,0.2,2.4,0.2c0,0.5,0,1,0.1,1.5c0.1,0.8,0.1,2.4,1.1,2.7c0.1,0,0.6-1.6,0.6-1.7c0.2-0.8,0.2-1.6,0.2-2.4
				c0.5,0,1,0,1.5-0.1c0.8-0.1,2.3-0.2,2.6-1.2C867,97.5,865.4,97.1,865.2,97"/>
			<path id="Fill-57-Copy-8_00000142160697983394160420000005894266288456675749_" class="st3" d="M850.5,29.3
				c-0.6-0.1-1.2-0.2-1.8-0.2c-0.2,0-0.4,0-0.6,0c0-0.5,0-1-0.1-1.5c-0.1-0.9-0.2-2.3-1.2-2.6c-0.1,0-0.6,1.6-0.6,1.7
				c-0.1,0.6-0.2,1.2-0.2,1.8c0,0.2,0,0.4,0,0.6c-0.5,0-1,0-1.5,0.1c-0.8,0.1-2.4,0.1-2.7,1.2c0,0.1,1.6,0.6,1.7,0.6
				c0.8,0.2,1.6,0.2,2.4,0.2c0,0.5,0,1,0.1,1.5c0.1,0.8,0.1,2.4,1.1,2.7c0.1,0,0.6-1.6,0.6-1.7c0.2-0.8,0.2-1.6,0.2-2.4
				c0.5,0,1,0,1.5-0.1c0.8-0.1,2.3-0.2,2.6-1.2C852.3,29.8,850.7,29.4,850.5,29.3"/>
			<path id="Fill-57-Copy-9_00000123438802002434940010000001818201579549185971_" class="st3" d="M720.5-43.3
				c-0.6-0.1-1.2-0.2-1.8-0.2c-0.2,0-0.4,0-0.6,0c0-0.5,0-1-0.1-1.5c-0.1-0.9-0.2-2.3-1.2-2.6c-0.1,0-0.6,1.6-0.6,1.7
				c-0.1,0.6-0.2,1.2-0.2,1.8c0,0.2,0,0.4,0,0.6c-0.5,0-1,0-1.5,0.1c-0.8,0.1-2.4,0.1-2.7,1.2c0,0.1,1.6,0.6,1.7,0.6
				c0.8,0.2,1.6,0.2,2.4,0.2c0,0.5,0,1,0.1,1.5c0.1,0.8,0.1,2.4,1.1,2.7c0.1,0,0.6-1.6,0.6-1.7c0.2-0.8,0.2-1.6,0.2-2.4
				c0.5,0,1,0,1.5-0.1c0.8-0.1,2.3-0.2,2.6-1.2C722.3-42.8,720.7-43.3,720.5-43.3"/>
			<path id="Fill-57-Copy_00000083054156101985573460000010217937794718323618_" class="st3" d="M772.5,344.1
				c-0.6-0.1-1.2-0.2-1.8-0.2c-0.2,0-0.4,0-0.6,0c0-0.5,0-1-0.1-1.5c-0.1-0.9-0.2-2.3-1.2-2.6c-0.1,0-0.6,1.6-0.6,1.7
				c-0.1,0.6-0.2,1.2-0.2,1.8c0,0.2,0,0.4,0,0.6c-0.5,0-1,0-1.5,0.1c-0.8,0.1-2.4,0.1-2.7,1.2c0,0.1,1.6,0.6,1.7,0.6
				c0.8,0.2,1.6,0.2,2.4,0.2c0,0.5,0,1,0.1,1.5c0.1,0.8,0.1,2.4,1.1,2.7c0.1,0,0.6-1.6,0.6-1.7c0.2-0.8,0.2-1.6,0.2-2.4
				c0.5,0,1,0,1.5-0.1c0.8-0.1,2.3-0.2,2.6-1.2C774.3,344.6,772.7,344.1,772.5,344.1"/>
			<path id="Fill-59_00000005259841219507479960000008120116928830576273_" class="st3" d="M467.3,80.9c-0.6-0.1-1.2-0.2-1.8-0.2
				c-0.2,0-0.4,0-0.6,0c0-0.5,0-1-0.1-1.5c-0.1-0.9-0.2-2.3-1.2-2.6c-0.1,0-0.6,1.6-0.6,1.7c-0.1,0.6-0.2,1.2-0.2,1.8
				c0,0.2,0,0.4,0,0.6c-0.5,0-1,0-1.5,0.1c-0.8,0.1-2.4,0.1-2.7,1.2c0,0.1,1.6,0.6,1.7,0.6c0.8,0.2,1.6,0.2,2.4,0.2
				c0,0.5,0,1,0.1,1.5c0.1,0.8,0.1,2.4,1.1,2.7c0.1,0,0.6-1.6,0.6-1.7c0.2-0.8,0.2-1.6,0.2-2.4c0.5,0,1,0,1.5-0.1
				c0.8-0.1,2.3-0.2,2.6-1.2C469.1,81.4,467.5,81,467.3,80.9"/>
			<path id="Fill-61_00000128459776846656624460000008853964949463367614_" class="st3" d="M425.4,339.3c-0.6-0.1-1.2-0.2-1.8-0.2
				c-0.2,0-0.4,0-0.6,0c0-0.5,0-1-0.1-1.5c-0.1-0.9-0.2-2.3-1.2-2.6c-0.1,0-0.6,1.6-0.6,1.7c-0.1,0.6-0.2,1.2-0.2,1.8
				c0,0.2,0,0.4,0,0.6c-0.5,0-1,0-1.5,0.1c-0.8,0.1-2.4,0.1-2.7,1.1c0,0.1,1.6,0.6,1.7,0.6c0.8,0.2,1.6,0.2,2.4,0.2
				c0,0.5,0,1,0.1,1.5c0.1,0.8,0.1,2.4,1.1,2.7c0.1,0,0.6-1.6,0.6-1.7c0.2-0.8,0.2-1.6,0.2-2.4c0.5,0,1,0,1.5-0.1
				c0.8-0.1,2.3-0.2,2.6-1.2C427.1,339.8,425.5,339.3,425.4,339.3"/>
			<path id="Fill-71_00000106830561371228757250000013646257095985568927_" class="st3" d="M531.7,224.7c-0.6-0.1-1.2-0.2-1.8-0.2
				c-0.2,0-0.4,0-0.6,0c0-0.5,0-1-0.1-1.5c-0.1-0.9-0.2-2.3-1.2-2.6c-0.1,0-0.6,1.6-0.6,1.7c-0.1,0.6-0.2,1.2-0.2,1.8
				c0,0.2,0,0.4,0,0.6c-0.5,0-1,0-1.5,0.1c-0.8,0.1-2.4,0.1-2.7,1.1c0,0.1,1.6,0.6,1.7,0.6c0.8,0.2,1.6,0.2,2.4,0.2
				c0,0.5,0,1,0.1,1.5c0.1,0.8,0.1,2.4,1.1,2.7c0.1,0,0.6-1.6,0.6-1.7c0.2-0.8,0.2-1.6,0.2-2.4c0.5,0,1,0,1.5-0.1
				c0.8-0.1,2.3-0.2,2.6-1.2C533.5,225.2,531.9,224.7,531.7,224.7"/>
		</g>
		
			<g id="chico-copy-2" transform="translate(220.868946, 341.417582) rotate(-14.000000) translate(-220.868946, -341.417582) translate(127.635328, 251.000000)">
			<polygon id="Path_00000048484390052477287290000015294181648466326190_" class="st12" points="400.9,193.8 396.6,189.2 
				406.1,177.9 410.4,182.5 			"/>
			<polygon id="Path_00000086673441158371780460000012295245697523452347_" class="st12" points="431.2,226.2 426.9,221.6 
				434.2,208 438.5,212.6 			"/>
			<path id="Path_00000004531033673064865210000010636135227601344651_" class="st4" d="M426.7,220.6l7.3,2.3
				c0.2,0.1,0.4,0.3,0.4,0.6l-0.5,5.7c-0.1,0.5-0.5,0.9-1,0.9h-0.2c-2.3-0.8-4-1.5-7-2.4c-1.8-0.6-5.6-1.6-8.2-2.4
				c-2.5-0.8-2.1-3.4-1-3.3c3.1,0.5,6.2,0,9-1.3C425.9,220.6,426.3,220.5,426.7,220.6L426.7,220.6z"/>
			<path id="Path_00000068677833193638983280000004392030585954014372_" class="st4" d="M397,188.3l6.2,3.1c0.2,0.1,0.4,0.4,0.3,0.6
				l-1.3,5.6c-0.1,0.2-0.2,0.4-0.4,0.6c-0.2,0.1-0.5,0.2-0.7,0.1h-0.2c-2.2-1.2-5.3-2.9-8.1-4.3c-3.3-1.6-6.2-2.8-10-4.8
				c-2.3-1.1-1.8-3.8-0.7-3.5c4.9,1.2,8.5,2.9,13.5,2.5C396,188,396.5,188.1,397,188.3L397,188.3z"/>
			<path id="Path_00000011746543138455637760000003605675792203109549_" class="st13" d="M522.4,92.9c-4.8,0.9-9.7,1.8-14.5,2.6
				L493.1,98c-1.8,0.2-3.7,0.1-5.5-0.4c-1.6-0.5-3.1-1.2-4.4-2.2c-2.3-1.7-4.4-3.8-6.1-6.1c-1.6-2.1-3-4.4-4.1-6.8
				c-0.6-1.2-1.1-2.4-1.6-3.6c-0.5-1.2-1-2.4-1.4-3.7l4.3-1.9c1.2,2.1,2.5,4.1,3.9,6c1.3,1.9,2.8,3.7,4.4,5.4c1.4,1.6,3,2.9,4.8,3.9
				c0.7,0.4,1.5,0.7,2.3,0.9c0.6,0.1,1.3,0.1,1.9,0l3.4-0.9l3.6-0.9c2.5-0.6,4.9-1.1,7.3-1.6c4.9-1,9.7-1.9,14.7-2.7L522.4,92.9z"/>
			<path id="Path_00000111894872538530925170000003977338822481896371_" class="st5" d="M527.4,91.5c-4.2,4.3-21.1,6.4-21.1,6.4
				l-2-14.4c5.4-2,11-3.2,16.7-3.5C529.1,79.8,532.1,86.8,527.4,91.5z"/>
			<path id="Path_00000090978829821768431490000000425424984349837698_" class="st8" d="M521.1,89.9c-4.6,0.8-11.1,4.6-13.1,7.8
				c4.3-0.7,8.6-1.6,12.8-2.9C522.4,92,523.4,89.4,521.1,89.9z"/>
			<path id="Path_00000137090920492572191110000002994274335633811111_" class="st13" d="M475.9,76.4l-2.6-6.4l-5.9,5.4
				c0.9,2.5,3.3,4.1,5.9,4L475.9,76.4z"/>
			<polygon id="Path_00000026849125589642284500000008887388594309243532_" class="st13" points="470,67.2 466.3,72.4 467.3,75.3 
				473.3,70 			"/>
			<polygon id="Path_00000114760927387002608220000015192006112284717961_" class="st8" points="406.1,177.9 401.2,183.7 
				405.5,188.3 410.4,182.5 			"/>
			<polygon id="Path_00000137811829838415580140000005326035911601478292_" class="st8" points="438.5,212.6 434.2,208 430.3,215.3 
				435.3,218.6 			"/>
			<path id="Path_00000121276804620079905840000002442969432616422825_" class="st5" d="M524.1,80.3c0,0-5.8,12.4-36.2,37.1
				l23.1,24.6c17.2-11.1,29.5-23.9,45.7-42.7c-3.3-3.2-6.9-6.2-10.7-8.8c-4-2.6-8.1-4.9-12.4-7C530.5,82.3,527.3,81.2,524.1,80.3z"
				/>
			<path id="Path_00000003101852871206740060000000353194684050960010_" class="st8" d="M546.1,103.8c-2.3,3.7-3.7,7.9-4.3,12.2
				c1.8-1.8,3.5-3.8,5.3-5.8L546.1,103.8z"/>
			<path id="Path_00000054254488774199572250000007690553062838602682_" class="st13" d="M552.6,75.8c-3,3.6-7.9,10.5-6.6,14.8
				c0,0-3.4,3.5-10.8-0.7c-8.3-4.6-1.7-6.2-1.7-6.2c5.1,1.5,6.8-1.9,7.8-5.5L552.6,75.8z"/>
			<path id="Path_00000054268019029529988230000017041262872941121667_" class="st8" d="M548,76.7l-6.7,1.3
				c-0.2,0.8-0.5,1.6-0.9,2.4c2.3,0.8,4.8,0.2,6.5-1.5C547.3,78.3,547.7,77.5,548,76.7L548,76.7z"/>
			<g>
				<path class="st13" d="M544.5,79.7c-0.3,0-0.5,0-0.8,0C544,79.7,544.2,79.7,544.5,79.7z"/>
				<path class="st13" d="M545.4,79.7C545.4,79.7,545.4,79.7,545.4,79.7C545.4,79.7,545.4,79.7,545.4,79.7z"/>
				<path class="st13" d="M560.8,59.8c0.2-6.3-4.8-11.5-11-11.6c-8.8-0.3-14.7,10.5-16.2,18.1c0.4,0,0.9,0.3,1.5,1.2
					c2.2,3.6,5.1,5.9,9.9,5.2c4.8-0.7,9.1-9.2,9.1-9.2s-0.3,7.9-0.2,11.4c1.9-2.5,3.5-5.7,5.6-9.9C560.4,63.3,560.8,61.6,560.8,59.8
					z"/>
				<path class="st14" d="M545.4,79.7C545.4,79.7,545.4,79.7,545.4,79.7c-0.3,0-0.6,0-0.9,0C544.8,79.7,545.1,79.7,545.4,79.7z"/>
				<path class="st13" d="M545,72.6c-4.8,0.7-7.7-1.6-9.9-5.2c-0.6-0.9-1-1.2-1.5-1.2c0,0,0,0,0,0.1c-0.9,4,0.5,8.1,3.5,10.8
					c1.9,1.6,4.2,2.5,6.5,2.7c0.3,0,0.5,0,0.8,0c0.3,0,0.6,0,0.9,0c0,0,0,0,0,0c1-0.1,2-0.3,2.9-0.7c2.4-1,4.1-2.3,5.6-4.2
					c-0.1-3.5,0.2-11.4,0.2-11.4S549.8,71.9,545,72.6z"/>
				<path class="st14" d="M545,72.6c-4.8,0.7-7.7-1.6-9.9-5.2c-0.6-0.9-1-1.2-1.5-1.2c0,0,0,0,0,0.1c-0.9,4,0.5,8.1,3.5,10.8
					c1.9,1.6,4.2,2.5,6.5,2.7c0.3,0,0.5,0,0.8,0c0.3,0,0.6,0,0.9,0c0,0,0,0,0,0c1-0.1,2-0.3,2.9-0.7c2.4-1,4.1-2.3,5.6-4.2
					c-0.1-3.5,0.2-11.4,0.2-11.4S549.8,71.9,545,72.6z"/>
			</g>
			<path id="Path_00000007409766503189716490000006575403662635176320_" class="st15" d="M553.5,67.6c-0.4-4-0.4-15.1,7.8-16.9
				c8.2-1.8,6.4,9.7,4.2,15.4C563.3,71.7,554.1,74.5,553.5,67.6z"/>
			<path id="Path_00000024689847716447736390000007130552596945866406_" class="st15" d="M546.2,44c3.4-2.3,14.1-4.1,20.7,1.1
				s3.9,10.3,0.7,11.8c-4.1-1.7-8.8-1.1-14.1-3.1C547.7,51.7,540.5,47.8,546.2,44z"/>
			<path id="Path_00000150063231459984132630000007670465612942270906_" class="st13" d="M559.3,74.8c-1.7,1.2-3.9,1.6-5.9,1.2
				c-2.8-0.6-2.8-3.3-1-5.2c1.7-1.9,5-3.5,7.2-2c1.6,1.2,1.9,3.4,0.8,5C560.1,74.2,559.7,74.5,559.3,74.8L559.3,74.8z"/>
			<path id="Path_00000025441582642065051400000015316575952458491806_" class="st4" d="M487.9,117.5c0,0-41.6,5.4-55.1,19.1
				c-14.1,14.2-37.5,49.5-37.5,49.5l7.3,7.8c0,0,26.2-30.7,40.8-43.8c15.9-14.3,47.7-5.1,59.7-16.4L487.9,117.5z"/>
			<path id="Path_00000173844637423014661080000004916267911987664015_" class="st8" d="M486,135.8c-5-3.3-18.6,0.9-24.6,6.5
				c7.9-1.4,16.4-1.6,24-2.5C486.8,138.2,487.3,136.7,486,135.8z"/>
			<path id="Path_00000002356791152687820990000012038813844841730990_" class="st4" d="M496,126.2c0,0-34.1,14.9-44.6,30.2
				C440,173,423.9,217,423.9,217l10.9,9c0,0,15.7-39.3,28.3-54.5c13.7-16.6,36.4-18.5,47.9-29.3L496,126.2z"/>
			<polygon id="Path_00000099643360480638263290000006690866009761193658_" class="st5" points="422.3,220 435.2,227.7 437.3,224.2 
				423,215.4 			"/>
			<polygon id="Path_00000155104496707134776760000009971144250777881009_" class="st5" points="392.1,186.4 402.4,197.5 
				405.4,194.7 394.1,182.2 			"/>
			<path id="Path_00000144300471824873440100000001433344515426996876_" class="st4" d="M547.1,61.9c-0.3,0.6-0.8,1-1.2,0.8
				s-0.5-0.8-0.2-1.4c0.2-0.6,0.8-1,1.2-0.8C547.3,60.6,547.4,61.3,547.1,61.9z"/>
			<path id="Path_00000005958591187196037960000009973734129370941595_" class="st4" d="M540.1,58.8c-0.3,0.6-0.8,1-1.2,0.8
				c-0.4-0.2-0.5-0.8-0.2-1.4s0.8-1,1.2-0.8S540.4,58.2,540.1,58.8z"/>
			<path id="Path_00000021109557010838970910000017270549368888193699_" class="st8" d="M542.2,60c-1.6,1.6-3.4,2.9-5.3,4
				c0.6,1,1.6,1.7,2.8,1.8L542.2,60z"/>
			<path id="Path_00000021798693901722949650000000210553038915060621_" class="st4" d="M542.1,68.9c-0.5-0.1-1-0.2-1.4-0.4
				c0,0-0.1-0.1-0.1-0.1c0-0.1,0-0.1,0.1-0.1c0.1-0.1,0.2-0.1,0.2,0l0,0c1.5,0.8,3.3,0.8,4.8,0c0,0,0.2,0,0.3,0c0,0,0.1,0.1,0.1,0.1
				c0,0.1,0,0.1-0.1,0.1C544.8,69.1,543.4,69.3,542.1,68.9L542.1,68.9z"/>
			<path id="Path_00000166665296124873202670000002125603765179890591_" class="st4" d="M550.3,60.6c-0.1,0-0.3-0.1-0.3-0.3
				c-0.2-1-0.9-1.8-1.8-2.3c-0.2-0.1-0.3-0.3-0.2-0.5c0.1-0.2,0.3-0.3,0.5-0.2c1.2,0.5,2,1.5,2.3,2.8c0.1,0.2-0.1,0.4-0.3,0.5l0,0
				C550.4,60.6,550.3,60.6,550.3,60.6z"/>
			<path id="Path_00000147188334455750093110000011761232431736106935_" class="st4" d="M538.2,55c-0.1,0-0.1,0-0.2,0
				c-0.1-0.1-0.1-0.2-0.1-0.3c0-0.1,0-0.2,0.1-0.3c1-0.8,2.3-1.2,3.5-0.9c0.2,0.1,0.3,0.3,0.3,0.5c-0.1,0.2-0.3,0.3-0.5,0.2
				c-1-0.2-2,0.1-2.8,0.7C538.4,55.1,538.3,55.1,538.2,55L538.2,55z"/>
			<path id="Path_00000166655432633711546040000006937804688812841139_" class="st13" d="M556.1,103.6c0.2,1.3,0.4,2.4,0.5,3.6
				s0.3,2.4,0.4,3.5c0.2,2.4,0.3,4.7,0.3,7.1c0,2.4,0,4.8-0.3,7.2l-0.2,1.8l-0.2,1.8c0,0.6-0.2,1.2-0.3,1.8l-0.2,0.9v0.2v0.4
				c-0.1,0.3-0.1,0.5-0.2,0.8c-0.6,1.5-1.5,2.9-2.6,4.1c-0.9,1-1.9,1.9-2.9,2.7c-1.8,1.6-3.8,3-5.8,4.3c-4,2.5-8.1,4.7-12.4,6.6
				l-2.3-4.1c3.5-2.7,7.1-5.4,10.3-8.3c1.6-1.4,3.2-2.8,4.7-4.4c0.7-0.7,1.3-1.4,1.8-2.2c0.4-0.5,0.7-1,0.9-1.6l0,0v-0.2v-0.7
				c0-0.5,0.1-1,0.1-1.5V126v-1.6c0-2.1,0-4.1,0-6.4s-0.3-4.3-0.5-6.5c0-1.1-0.2-2.1-0.3-3.2l-0.4-3.2L556.1,103.6z"/>
			<path id="Path_00000018239181188534741650000003779291810439230368_" class="st5" d="M556,98.8c4.9,3.6,3.8,21.8,3.8,21.8
				l-14.3,1.6c-1.1-5.3-1.5-10.7-1.3-16.1C544.8,97.9,550.6,94.8,556,98.8z"/>
			<path id="Shape_00000019639163686610987830000008544941352076151454_" class="st5" d="M424.3,221c-0.4-0.1-0.8-0.3-1.1-0.7
				c-0.1-0.3-0.1-0.6,0-0.8c0.1-0.2,0.2-0.3,0.4-0.3c0.8-0.1,2.3,1.7,2.5,1.9c0,0,0,0.1,0,0.1c0,0.1-0.1,0.1-0.1,0.1
				C425.4,221.3,424.9,221.2,424.3,221L424.3,221z M423.8,219.5h-0.2c0,0-0.1,0-0.1,0.1c-0.1,0.2-0.1,0.4,0,0.6
				c0.6,0.5,1.3,0.8,2.1,0.8C425.1,220.4,424.4,219.9,423.8,219.5L423.8,219.5z"/>
			<path id="Shape_00000098908721407900090070000014069627944645949112_" class="st5" d="M425.9,221.3L425.9,221.3
				c-0.5-0.5-1.3-2.2-1-2.9c0.1-0.2,0.4-0.3,0.6-0.2c0.2,0,0.4,0.2,0.5,0.4c0.3,0.9,0.3,1.8,0.1,2.7l-0.1,0.1L425.9,221.3z
				 M425.5,218.5L425.5,218.5c-0.2,0-0.2,0-0.2,0c-0.2,0.4,0.2,1.6,0.7,2.3c0.2-0.7,0.1-1.4-0.1-2.1
				C425.8,218.6,425.7,218.5,425.5,218.5L425.5,218.5z"/>
			<path id="Shape_00000000924719185874955220000009441187496811974313_" class="st5" d="M394.2,188.1c-0.5-0.2-0.9-0.6-1.2-1
				c-0.1-0.2-0.1-0.5,0-0.8c0.1-0.1,0.2-0.2,0.4-0.2c0.8,0,2.6,2.2,2.7,2.5c0,0,0,0.1,0,0.2c0,0-0.1,0-0.2,0
				C395.3,188.6,394.7,188.4,394.2,188.1L394.2,188.1z M393.7,186.5c-0.1,0-0.2,0-0.3,0c0,0-0.1,0-0.1,0c-0.1,0.2-0.1,0.4,0,0.5
				c0.2,0.5,1.1,1,2.4,1.4C395.2,187.6,394.5,187,393.7,186.5L393.7,186.5z"/>
			<path id="Shape_00000068661822852187858670000013483296679791987585_" class="st5" d="M396,188.8L396,188.8
				c-0.5-0.6-1.3-2.5-0.8-3.1c0.2-0.2,0.5-0.3,0.7-0.1c0.3,0.1,0.5,0.3,0.6,0.6c0.2,0.9,0.1,1.8-0.2,2.6c0,0.1-0.1,0.1-0.1,0.1
				L396,188.8z M395.8,185.8L395.8,185.8c-0.2,0-0.3,0-0.3,0c-0.2,0.4,0.2,1.8,0.7,2.5c0.2-0.7,0.2-1.4,0-2.1
				C396,186.1,395.9,186,395.8,185.8L395.8,185.8z"/>
			<path id="Path_00000055668725939041679320000004891445425834885250_" class="st13" d="M531.5,146.1h-6.4l3.4,7.3
				c0,0,5.4-1.2,5.1-4.1L531.5,146.1z"/>
			<polygon id="Path_00000117637707396206343390000001828195600200710787_" class="st13" points="519.4,149.9 522.5,155.8 
				528.4,153.4 525.1,146.1 			"/>
		</g>
		<g id="Group-8-Copy-2_00000023963632101600140640000013327013716256105113_" transform="translate(442.000000, 247.000000)">
			<circle id="Oval_00000135652654056180377720000017986796352474753160_" class="st5" cx="305.3" cy="-80.6" r="10.7"/>
			<path id="Path_00000166646472007441569870000015735152079168065444_" class="st16" d="M299.6-82.4c1.5-4.7,6.1-7.8,11.1-7.3
				c-0.7-0.4-1.4-0.8-2.2-1c-5.5-1.6-11.3,1.5-13.1,7c-1.8,5.5,1.1,11.3,6.5,13.3c0.8,0.3,1.6,0.4,2.4,0.5
				C300.1-72.5,298.1-77.7,299.6-82.4L299.6-82.4z"/>
		</g>
		<g id="planeta-copy-2" transform="translate(143.589744, 132.000000)">
			
				<ellipse id="Oval_00000107550704575241287840000001321604235898566041_" class="st5" cx="505.1" cy="-72.4" rx="34.2" ry="34.3"/>
			
				<ellipse id="Oval_00000098190823766653733080000005441115843525799845_" class="st17" cx="505.1" cy="-72.4" rx="34.2" ry="34.3"/>
			<path id="Path_00000085209308591827632230000015344447500847681161_" class="st18" d="M526.7-99c-15.6-4.7-32.3,2.4-39.9,16.8
				s-4.1,32.3,8.5,42.6c15.6,4.7,32.4-2.3,40-16.8C542.9-70.8,539.3-88.7,526.7-99L526.7-99z"/>
			<path id="Path_00000101787213850630451200000014899749708474227078_" class="st5" d="M472.5-62.1c-36.5,17.3-9.3,30.6,42.2,12
				c47.6-17.2,65.8-38.9,23.1-32.1C540-73.2,480.4-49.9,472.5-62.1z"/>
		</g>
		<g id="luna-copy-2" transform="translate(86.752137, 300.000000)">
			
				<ellipse id="Oval_00000132053293740179522240000006216341686273096325_" class="st5" cx="404.7" cy="-20.5" rx="24.2" ry="24.3"/>
			
				<ellipse id="Oval_00000129169592998372720540000000419242937603403446_" class="st19" cx="404.7" cy="-20.5" rx="24.2" ry="24.3"/>
			<path id="Path_00000145741630676808623560000015818679728122121367_" class="st20" d="M396.3-38.8c-3.3,0-6.6,0.6-9.6,2
				c-7.7,8.5-8.5,21.2-1.8,30.5s18.8,12.7,29.3,8.2l0,0c6.4-7.1,8.1-17.4,4.2-26.2S405.9-38.8,396.3-38.8L396.3-38.8z"/>
			<path id="Path_00000181083396173092724030000014768305508052476317_" class="st20" d="M393.9-32.4c0,1.2-1,2.2-2.2,2.2
				s-2.2-1-2.2-2.2s1-2.2,2.2-2.2S393.9-33.6,393.9-32.4z"/>
			<path id="Path_00000163046603076518511590000009668345694072872850_" class="st20" d="M419.9-34.6c0,1.2-1,2.2-2.2,2.2
				c-1.2,0-2.2-1-2.2-2.2s1-2.2,2.2-2.2C418.9-36.8,419.9-35.8,419.9-34.6z"/>
			<path id="Path_00000008123434408314331380000012461899827552909442_" class="st20" d="M415.5-18.8c0,2-1.6,3.6-3.6,3.6
				c-2,0-3.6-1.6-3.6-3.6s1.6-3.6,3.6-3.6l0,0C413.8-22.4,415.5-20.8,415.5-18.8z"/>
			<path id="Path_00000073695115755966445680000014642537528846107792_" class="st20" d="M404-8.4c0,2-1.2,3.7-3,4.5
				s-3.9,0.3-5.3-1.1c-1.4-1.4-1.8-3.5-1-5.3s2.5-3,4.5-3c1.3,0,2.5,0.5,3.4,1.4C403.5-11,404-9.7,404-8.4L404-8.4z"/>
		</g>
		<g id="Group-8-Copy-2_00000019659718203674767150000003107375185025846158_" transform="translate(86.752137, 201.000000)">
			<ellipse id="Oval_00000075153919409184682310000010656632555475049092_" class="st5" cx="466" cy="-29" rx="5.6" ry="5.6"/>
			<path id="Path_00000124139823126529001340000015335801370498472628_" class="st16" d="M463.1-30c0.8-2.5,3.2-4.1,5.8-3.8
				c-0.4-0.2-0.7-0.4-1.1-0.5c-2.9-0.8-5.9,0.8-6.8,3.7s0.6,5.9,3.4,6.9c0.4,0.1,0.8,0.2,1.2,0.2C463.3-24.8,462.3-27.5,463.1-30
				L463.1-30z"/>
		</g>
	</g>
</g>
<g>
	<path class="st6" d="M262.9,114.1l-12.4-8.1c-9.4,3.1-8.1,11.3-24.9,30.3l6.8,7.2C246.1,129.9,262.9,114.1,262.9,114.1z"/>
	<path class="st7" d="M185,152.4l-0.5,4.9c0,0,30.5,3.5,41.7-7.7c1.9-1.9,4-4,6.2-6.1l-6.8-7.2c-2.2,2.5-4.6,5.1-7.4,7.9
		C210.5,151.7,185,152.4,185,152.4z"/>
</g>
<path class="st9" d="M251,104.2c0,0-18.9,10.1-24.1,16c-1.6,1.9,1.1-1.4-2.6,3.2c19.1,23.1,39.7,30.3,39.7,30.3l4.1-36.7L251,104.2z
	"/>
<g>
	<path class="st21" d="M119.7,674c0,0,3.8-86.8,12.3-145.3c8.6-58.5,3.9-90.2-5.1-135.5s-7-59.4-7.3-82.5l5.1-1.2
		c0,0,1.7,76.7,17.4,74.6c15.7-2.1,15.5-74.6,15.5-74.6h8.7c0,0,6.8,37.4-8.1,100c-14.9,62.6-4.7,97.7,0,142.6s8.8,122,8.8,122
		H119.7z"/>
	<path class="st21" d="M113.8,674H98c0,0,0.4-61.1,7.9-113.8c7.5-52.8,8-60.3,8-75.9s-4.2-59.8-8.4-80.9s-10.2-45.6-9.2-94.8h13.9
		c0,0-5.3,41.7,3.7,97.3s7.3,130.3,7.3,130.3L113.8,674z"/>
	<ellipse class="st4" cx="133.2" cy="286" rx="54.4" ry="26.8"/>
	<g>
		<ellipse class="st22" cx="133.2" cy="306.8" rx="66.7" ry="8.3"/>
		<ellipse class="st22" cx="133.2" cy="286" rx="79.5" ry="7.3"/>
		<ellipse class="st5" cx="133.2" cy="250" rx="26.2" ry="4.1"/>
		<path class="st22" d="M133.2,257.8c-34.1,0-61.8,6.2-61.8,13.9H195C195,264.1,167.3,257.8,133.2,257.8z"/>
		<path class="st5" d="M110.3,262.3c0,0,0.7-8.6-3.1-11.7c-3.9-3.1,51.1,0.8,51.1,0.8s-4.6,3.9-1.8,9.5
			C159.2,266.3,110.3,262.3,110.3,262.3z"/>
		<path class="st5" d="M126.5,256.5l4.5-72.7c0.1-2.4,3.6-2.4,3.9,0l3.4,72.7H126.5z"/>
	</g>
</g>
<g>
	<path id="Path_00000012443612878608449720000011605078191832837505_" class="st22" d="M284.7,318.2c-17.7,1.4-23.6,12.8-25.6,27.9
		c-1,7.7-1.5,15.5-8,19.9c-0.8,0.5-1.2,1.5-0.9,2.5c0.3,0.9,1.2,1.5,2.1,1.5c23.8-0.7,34.9-12.4,36.3-17.2c-0.4,2.5-1,5-2,7.4
		c-0.3,0.9-0.1,1.9,0.6,2.5c0.7,0.6,1.7,0.7,2.5,0.2c6.7-4.2,15-11.9,15.6-24.3C300.6,331.5,284.7,318.2,284.7,318.2z"/>
	<g>
		<g class="st23">
			<path class="st24" d="M303.9,284.1c0,0-18.9-4.3-40.1,13.2c10.8,2.2,17.7,8.4,22.3,12.8l19-12.7L303.9,284.1z"/>
			<path class="st24" d="M340.8,325.4c0,0,2.2,19.2-17.6,38.4c-1-11-6.4-18.5-10.2-23.5l14.7-17.4L340.8,325.4z"/>
		</g>
		<path class="st21" d="M360.2,310.6c-18.9,16.9-36.7,25.7-47.1,29.9c-6.2,2.5-9.8,3.3-9.8,3.3s-6.2-2.4-13.2-10.2
			c-7-7.8-8.7-14.3-8.7-14.3s1.3-3.6,4.5-9.6c5.3-10,16.1-26.6,34.8-43.4c15.5-13.9,32.7-20,46-22.2c11-1.8,19.3-1.1,21.9,0.1l1,1.2
			c0.9,2.7,0.8,11.1-2.3,21.8C383.6,280.4,375.7,296.7,360.2,310.6z"/>
		<path class="st5" d="M297,327.7c-7.2-8-10.2-14.9-11.2-17.8c-3.2,5.9-4.5,9.6-4.5,9.6s1.7,6.5,8.7,14.3c7,7.8,13.2,10.2,13.2,10.2
			s3.7-0.9,9.8-3.3C310.1,339.1,303.9,335.3,297,327.7z"/>
		
			<ellipse transform="matrix(0.7859 -0.6184 0.6184 0.7859 -93.4911 279.0069)" class="st5" cx="356.1" cy="274.5" rx="15" ry="15"/>
		<path class="st25" d="M362.5,281.6c-3.9,3.5-9.9,3.2-13.4-0.7c-3.5-3.9-3.2-9.9,0.7-13.4c3.9-3.5,9.9-3.2,13.4,0.7
			S366.4,278.1,362.5,281.6z"/>
		<path class="st5" d="M387.3,267.4c-4.3-2.2-8.6-5.5-12.4-9.7c-3.8-4.2-6.6-8.8-8.3-13.4c11-1.8,19.3-1.1,21.9,0.1l1,1.2
			C390.5,248.3,390.3,256.7,387.3,267.4z"/>
		<path class="st26" d="M313.7,316.9c-9.8,8.7-25.5,20.9-26.7,19.5c-1.2-1.3,12.6-15.6,22.4-24.4c9.8-8.7,11.8-8.6,13-7.3
			C323.6,306.1,323.5,308.1,313.7,316.9z"/>
	</g>
</g>
</svg>
